<?xml version="1.0" standalone="no"?>
<!DOCTYPE svg PUBLIC "-//W3C//DTD SVG 20010904//EN"
 "http://www.w3.org/TR/2001/REC-SVG-20010904/DTD/svg10.dtd">
<svg version="1.0" xmlns="http://www.w3.org/2000/svg"
 width="1500.000000pt" height="1500.000000pt" viewBox="0 0 1500.000000 1500.000000"
 preserveAspectRatio="xMidYMid meet">
<metadata>
Created by potrace 1.14, written by Peter Selinger 2001-2017
</metadata>
<g transform="translate(0.000000,1500.000000) scale(0.100000,-0.100000)"
fill="#000000" stroke="none">
<path d="M3967 13774 c-1 -1 -40 -4 -87 -7 -532 -36 -1043 -383 -1294 -877
-59 -117 -126 -297 -140 -380 -39 -217 -37 -18 -37 -4545 0 -2376 0 -4331 0
-4345 l1 -25 4348 1 c2391 1 4370 4 4397 8 554 69 1034 410 1271 902 40 85
106 265 118 324 3 14 13 59 23 100 16 71 17 315 20 4460 l3 4385 -4311 0
c-2371 0 -4311 -1 -4312 -1z"/>
<path d="M2482 2996 c-3 -5 -5 -60 -5 -120 l0 -111 54 -5 54 -5 0 -425 0 -425
-52 -3 c-42 -2 -53 -7 -54 -20 -5 -84 -3 -200 2 -212 6 -14 41 -16 256 -14
136 1 251 2 254 3 4 0 7 55 6 121 l0 120 -53 0 -52 0 0 430 0 430 53 0 53 0
-1 123 -2 122 -253 0 c-150 0 -256 -4 -260 -9z"/>
<path d="M8406 3000 c-2 -5 0 -1316 3 -1335 1 -7 55 -11 151 -10 l150 0 0 439
0 438 118 -152 c97 -126 200 -258 376 -485 13 -16 60 -77 105 -135 l82 -105
144 0 145 0 0 675 0 675 -152 0 -153 0 0 -437 c0 -240 -3 -434 -7 -431 -5 2
-52 61 -105 131 -54 70 -103 134 -110 142 -7 8 -73 94 -147 190 -74 96 -139
180 -143 185 -5 6 -24 30 -43 55 -19 25 -39 50 -45 56 -5 7 -19 24 -30 40 -53
74 -39 69 -195 69 -78 0 -143 -2 -144 -5z"/>
<path d="M12029 2783 c0 -16 -1 -62 -1 -104 l0 -76 -46 -21 c-26 -12 -58 -25
-72 -30 -25 -10 -26 -12 -24 -93 1 -46 2 -86 3 -89 1 -3 31 -5 69 -5 l67 0 1
-230 c1 -127 4 -249 7 -272 14 -96 64 -165 152 -211 42 -21 66 -26 145 -28 79
-3 223 16 237 30 3 3 6 173 4 213 -1 9 -8 10 -27 3 -35 -14 -124 -14 -154 -1
-78 33 -84 52 -85 288 0 130 3 204 10 206 5 2 65 3 133 2 67 0 122 2 123 5 1
7 1 148 0 193 l-1 37 -133 0 -133 0 1 105 1 105 -138 0 -138 0 -1 -27z"/>
<path d="M5149 2611 c-162 -43 -284 -158 -340 -321 -29 -84 -31 -229 -4 -310
57 -173 186 -295 354 -334 75 -18 198 -14 272 8 54 15 139 69 139 87 0 24 19
-5 28 -44 l11 -43 118 1 118 0 2 473 2 472 -122 0 c-110 0 -123 -2 -124 -17
-1 -10 -6 -30 -12 -45 l-10 -28 -28 26 c-86 80 -262 112 -404 75z m260 -237
c130 -38 192 -186 145 -345 -51 -172 -303 -217 -430 -77 -67 74 -86 164 -55
255 25 75 62 117 132 152 71 36 126 40 208 15z"/>
<path d="M6376 2619 c-65 -10 -181 -69 -228 -114 -85 -81 -136 -190 -145 -305
-23 -317 223 -551 534 -509 59 8 163 50 209 84 21 15 21 15 12 -45 -24 -182
-168 -268 -395 -238 -80 11 -156 40 -203 77 l-35 28 2 -86 c1 -47 2 -103 3
-123 0 -43 21 -57 130 -89 85 -25 128 -31 224 -30 199 1 335 50 438 156 39 41
82 119 92 170 4 17 9 41 13 55 3 14 8 233 10 488 l5 462 -121 0 -121 0 -17
-35 -18 -35 -35 25 c-81 57 -231 84 -354 64z m250 -253 c111 -52 161 -171 120
-292 -69 -208 -388 -201 -456 10 -34 106 16 225 115 274 57 28 64 30 120 31
33 1 67 -7 101 -23z"/>
<path d="M7605 2620 c-251 -49 -430 -268 -420 -512 8 -202 158 -381 375 -449
142 -45 356 -27 496 42 l64 31 -36 66 c-58 109 -49 104 -130 80 -47 -14 -102
-20 -174 -21 -97 -2 -109 0 -160 26 -58 30 -132 95 -127 111 2 5 140 9 350 9
l346 0 7 31 c20 89 -3 231 -52 328 -32 62 -142 175 -200 205 -97 50 -239 72
-339 53z m244 -290 c20 -20 46 -55 59 -78 l23 -42 -140 -1 c-78 0 -170 0 -206
0 -123 0 -115 -3 -103 31 13 39 73 102 116 124 87 44 184 31 251 -34z"/>
<path d="M10241 2614 c-174 -37 -324 -167 -382 -332 -28 -79 -32 -210 -8 -280
62 -181 215 -313 412 -355 66 -15 217 -16 282 -2 42 8 143 43 174 60 54 30 54
27 6 112 l-46 81 -72 -19 c-134 -35 -254 -33 -343 7 -40 17 -126 93 -121 107
2 7 115 10 349 10 l347 0 6 25 c12 47 6 177 -11 232 -27 91 -63 152 -133 220
-67 67 -159 120 -231 135 -66 13 -165 13 -229 -1z m190 -238 c47 -20 92 -62
124 -118 l27 -48 -231 0 -230 0 10 28 c38 111 194 182 300 138z"/>
<path d="M11317 2613 c-102 -23 -196 -84 -242 -158 -10 -16 -24 -53 -31 -81
-42 -184 77 -315 326 -355 76 -12 136 -41 143 -69 8 -30 -35 -76 -80 -87 -59
-14 -130 1 -175 38 l-40 31 -55 -26 c-30 -15 -75 -36 -99 -46 l-45 -20 15 -28
c38 -73 162 -151 271 -169 79 -13 191 -6 245 15 161 61 240 155 241 286 1 102
-49 180 -149 230 -49 25 -189 66 -224 66 -10 0 -36 7 -58 16 -69 28 -65 100 7
130 47 20 104 5 143 -36 l26 -27 92 28 c128 39 124 36 101 84 -65 132 -254
214 -412 178z"/>
<path d="M3180 2127 l0 -472 138 0 137 0 1 281 c2 301 5 330 52 381 63 71 194
56 234 -27 26 -52 26 -62 27 -360 l1 -276 128 1 c70 0 132 4 139 8 8 5 12 85
12 290 0 303 4 329 53 374 51 47 145 47 196 0 51 -47 55 -71 57 -374 2 -155 5
-285 8 -290 5 -7 239 -11 267 -4 12 2 3 636 -10 681 -39 142 -127 225 -265
251 -130 24 -266 -16 -344 -102 l-26 -28 -39 39 c-108 111 -309 131 -448 43
-21 -12 -39 -23 -41 -23 -2 0 -12 18 -22 40 l-18 40 -119 0 -118 0 0 -473z"/>
</g>
</svg>
